TITLE ""
FILE "Disc1Track59.mp3" MP3
  TRACK 01 AUDIO
    TITLE "Disc1Track59_01"
    INDEX 01 00:00:00
  TRACK 02 AUDIO
    TITLE "Disc1Track59_02"
    INDEX 01 00:01:10
  TRACK 03 AUDIO
    TITLE "Disc1Track59_03"
    INDEX 01 00:02:62
  TRACK 04 AUDIO
    TITLE "Disc1Track59_04"
    INDEX 01 00:04:12
  TRACK 05 AUDIO
    TITLE "Disc1Track59_05"
    INDEX 01 00:04:51
  TRACK 06 AUDIO
    TITLE "Disc1Track59_06"
    INDEX 01 00:06:11
  TRACK 07 AUDIO
    TITLE "Disc1Track59_07"
    INDEX 01 00:07:34
  TRACK 08 AUDIO
    TITLE "Disc1Track59_08"
    INDEX 01 00:08:67
  TRACK 09 AUDIO
    TITLE "Disc1Track59_09"
    INDEX 01 00:12:51
  TRACK 10 AUDIO
    TITLE "Disc1Track59_10"
    INDEX 01 00:13:07
  TRACK 11 AUDIO
    TITLE "Disc1Track59_11"
    INDEX 01 00:14:34
  TRACK 12 AUDIO
    TITLE "Disc1Track59_12"
    INDEX 01 00:17:46
  TRACK 13 AUDIO
    TITLE "Disc1Track59_13"
    INDEX 01 00:18:71
  TRACK 14 AUDIO
    TITLE "Disc1Track59_14"
    INDEX 01 00:23:68
  TRACK 15 AUDIO
    TITLE "Disc1Track59_15"
    INDEX 01 00:24:25
  TRACK 16 AUDIO
    TITLE "Disc1Track59_16"
    INDEX 01 00:25:53
  TRACK 17 AUDIO
    TITLE "Disc1Track59_17"
    INDEX 01 00:27:62
  TRACK 18 AUDIO
    TITLE "Disc1Track59_18"
    INDEX 01 00:29:14
  TRACK 19 AUDIO
    TITLE "Disc1Track59_19"
    INDEX 01 00:32:55
  TRACK 20 AUDIO
    TITLE "Disc1Track59_20"
    INDEX 01 00:33:12
  TRACK 21 AUDIO
    TITLE "Disc1Track59_21"
    INDEX 01 00:34:43
  TRACK 22 AUDIO
    TITLE "Disc1Track59_22"
    INDEX 01 00:36:32
  TRACK 23 AUDIO
    TITLE "Disc1Track59_23"
    INDEX 01 00:37:60
  TRACK 24 AUDIO
    TITLE "Disc1Track59_24"
    INDEX 01 00:41:11
  TRACK 25 AUDIO
    TITLE "Disc1Track59_25"
    INDEX 01 00:41:41
  TRACK 26 AUDIO
    TITLE "Disc1Track59_26"
    INDEX 01 00:42:67
  TRACK 27 AUDIO
    TITLE "Disc1Track59_27"
    INDEX 01 00:44:17
  TRACK 28 AUDIO
    TITLE "Disc1Track59_28"
    INDEX 01 00:45:44
  TRACK 29 AUDIO
    TITLE "Disc1Track59_29"
    INDEX 01 00:46:10
  TRACK 30 AUDIO
    TITLE "Disc1Track59_30"
    INDEX 01 00:47:51
  TRACK 31 AUDIO
    TITLE "Disc1Track59_31"
    INDEX 01 00:48:45
  TRACK 32 AUDIO
    TITLE "Disc1Track59_32"
    INDEX 01 00:50:08
  TRACK 33 AUDIO
    TITLE "Disc1Track59_33"
    INDEX 01 00:52:15
  TRACK 34 AUDIO
    TITLE "Disc1Track59_34"
    INDEX 01 00:52:48
  TRACK 35 AUDIO
    TITLE "Disc1Track59_35"
    INDEX 01 00:53:71
  TRACK 36 AUDIO
    TITLE "Disc1Track59_36"
    INDEX 01 00:55:29
  TRACK 37 AUDIO
    TITLE "Disc1Track59_37"
    INDEX 01 00:56:52
  TRACK 38 AUDIO
    TITLE "Disc1Track59_38"
    INDEX 01 01:01:51
  TRACK 39 AUDIO
    TITLE "Disc1Track59_39"
    INDEX 01 01:02:07
  TRACK 40 AUDIO
    TITLE "Disc1Track59_40"
    INDEX 01 01:03:25
  TRACK 41 AUDIO
    TITLE "Disc1Track59_41"
    INDEX 01 01:04:36
  TRACK 42 AUDIO
    TITLE "Disc1Track59_42"
    INDEX 01 01:05:51
  TRACK 43 AUDIO
    TITLE "Disc1Track59_43"
    INDEX 01 01:07:71
  TRACK 44 AUDIO
    TITLE "Disc1Track59_44"
    INDEX 01 01:08:32
  TRACK 45 AUDIO
    TITLE "Disc1Track59_45"
    INDEX 01 01:09:49
  TRACK 46 AUDIO
    TITLE "Disc1Track59_46"
    INDEX 01 01:11:22
  TRACK 47 AUDIO
    TITLE "Disc1Track59_47"
    INDEX 01 01:12:37
  TRACK 48 AUDIO
    TITLE "Disc1Track59_48"
    INDEX 01 01:16:10
  TRACK 49 AUDIO
    TITLE "Disc1Track59_49"
    INDEX 01 01:16:41
  TRACK 50 AUDIO
    TITLE "Disc1Track59_50"
    INDEX 01 01:17:74
  TRACK 51 AUDIO
    TITLE "Disc1Track59_51"
    INDEX 01 01:20:15
  TRACK 52 AUDIO
    TITLE "Disc1Track59_52"
    INDEX 01 01:21:48
  TRACK 53 AUDIO
    TITLE "Disc1Track59_53"
    INDEX 01 01:26:00
